<svg xmlns="http://www.w3.org/2000/svg" id="svg2" width="388.84pt" height="115.02pt" xmlns:xlink="http://www.w3.org/1999/xlink" xmlns:svg="http://www.w3.org/2000/svg" xmlns:sodipodi="http://inkscape.sourceforge.net/DTD/sodipodi-0.dtd" xmlns:rdf="http://www.w3.org/1999/02/22-rdf-syntax-ns#" xmlns:inkscape="http://www.inkscape.org/namespaces/inkscape" xmlns:dc="http://purl.org/dc/elements/1.1/" xmlns:cc="http://web.resource.org/cc/" version="1.0" sodipodi:version="0.32" inkscape:version="0.43" sodipodi:docname="logo-python-generic.svg" sodipodi:docbase="/home/sdeibel">
  <metadata id="metadata2193">
    <rdf:rdf>
      <cc:work rdf:about="">
        <dc:format>image/svg+xml</dc:format>
        <dc:type rdf:resource="http://purl.org/dc/dcmitype/StillImage"></dc:type>
      </cc:work>
    </rdf:rdf>
  </metadata>
  <sodipodi:namedview id="base" pagecolor="#ffffff" inkscape:zoom="1.4340089" inkscape:window-y="0" inkscape:window-x="0" inkscape:window-width="791" inkscape:window-height="543" inkscape:pageshadow="2" inkscape:pageopacity="0.0" inkscape:cy="71.887497" inkscape:cx="243.02499" inkscape:current-layer="svg2" borderopacity="1.0" bordercolor="#666666"></sodipodi:namedview>
  <defs id="defs4">
    <linearGradient id="linearGradient2795">
      <stop id="stop2797" style="stop-color:#b8b8b8;stop-opacity:0.49803922" offset="0"/>
      <stop id="stop2799" style="stop-color:#7f7f7f;stop-opacity:0" offset="1"/>
    </linearGradient>
    <linearGradient id="linearGradient2787">
      <stop id="stop2789" style="stop-color:#7f7f7f;stop-opacity:0.5" offset="0"/>
      <stop id="stop2791" style="stop-color:#7f7f7f;stop-opacity:0" offset="1"/>
    </linearGradient>
    <linearGradient id="linearGradient3676">
      <stop id="stop3678" style="stop-color:#b2b2b2;stop-opacity:0.5" offset="0"/>
      <stop id="stop3680" style="stop-color:#b3b3b3;stop-opacity:0" offset="1"/>
    </linearGradient>
    <linearGradient id="linearGradient3236">
      <stop id="stop3244" style="stop-color:#f4f4f4;stop-opacity:1" offset="0"/>
      <stop id="stop3240" style="stop-color:#ffffff;stop-opacity:1" offset="1"/>
    </linearGradient>
    <linearGradient id="linearGradient4671">
      <stop id="stop4673" style="stop-color:#ffd43b;stop-opacity:1" offset="0"/>
      <stop id="stop4675" style="stop-color:#ffe873;stop-opacity:1" offset="1"/>
    </linearGradient>
    <linearGradient id="linearGradient4689">
      <stop id="stop4691" style="stop-color:#5a9fd4;stop-opacity:1" offset="0"/>
      <stop id="stop4693" style="stop-color:#306998;stop-opacity:1" offset="1"/>
    </linearGradient>
    <linearGradient id="linearGradient2987" gradientUnits="userSpaceOnUse" gradientTransform="translate(100.27 99.6112)" x1="224.24" y1="144.757" x2="-65.3085" y2="144.757" xlink:href="#linearGradient4671"/>
    <linearGradient id="linearGradient2990" gradientUnits="userSpaceOnUse" gradientTransform="translate(100.27 99.6112)" x1="172.942" y1="77.476" x2="26.6703" y2="76.3131" xlink:href="#linearGradient4689"/>
    <linearGradient id="linearGradient2587" gradientUnits="userSpaceOnUse" gradientTransform="translate(100.27 99.6112)" x1="172.942" y1="77.476" x2="26.6703" y2="76.3131" xlink:href="#linearGradient4689"/>
    <linearGradient id="linearGradient2589" gradientUnits="userSpaceOnUse" gradientTransform="translate(100.27 99.6112)" x1="224.24" y1="144.757" x2="-65.3085" y2="144.757" xlink:href="#linearGradient4671"/>
    <linearGradient id="linearGradient2248" gradientUnits="userSpaceOnUse" gradientTransform="translate(100.27 99.6112)" x1="172.942" y1="77.476" x2="26.6703" y2="76.3131" xlink:href="#linearGradient4689"/>
    <linearGradient id="linearGradient2250" gradientUnits="userSpaceOnUse" gradientTransform="translate(100.27 99.6112)" x1="224.24" y1="144.757" x2="-65.3085" y2="144.757" xlink:href="#linearGradient4671"/>
    <linearGradient id="linearGradient2255" gradientUnits="userSpaceOnUse" gradientTransform="matrix(0.562541, 0, 0, 0.567972, -11.5974, -7.60954)" x1="224.24" y1="144.757" x2="-65.3085" y2="144.757" xlink:href="#linearGradient4671"/>
    <linearGradient id="linearGradient2258" gradientUnits="userSpaceOnUse" gradientTransform="matrix(0.562541, 0, 0, 0.567972, -11.5974, -7.60954)" x1="172.942" y1="76.1762" x2="26.6703" y2="76.3131" xlink:href="#linearGradient4689"/>
    <radialGradient id="radialGradient2801" gradientUnits="userSpaceOnUse" gradientTransform="matrix(1, 0, 0, 0.177966, 0, 108.743)" cx="61.5189" cy="132.286" r="29.0369" fx="61.5189" fy="132.286" xlink:href="#linearGradient2795"/>
    <linearGradient id="linearGradient1475" gradientUnits="userSpaceOnUse" gradientTransform="matrix(0.562541, 0, 0, 0.567972, -9.39975, -5.30532)" x1="150.961" y1="192.352" x2="112.031" y2="137.273" xlink:href="#linearGradient4671"/>
    <linearGradient id="linearGradient1478" gradientUnits="userSpaceOnUse" gradientTransform="matrix(0.562541, 0, 0, 0.567972, -9.39975, -5.30532)" x1="26.6489" y1="20.6038" x2="135.665" y2="114.398" xlink:href="#linearGradient4689"/>
    <radialGradient id="radialGradient1480" gradientUnits="userSpaceOnUse" gradientTransform="matrix(2.38272e-008, -0.296405, 1.43676, 4.68367e-007, -128.544, 150.52)" cx="61.5189" cy="132.286" r="29.0369" fx="61.5189" fy="132.286" xlink:href="#linearGradient2795"/>
  </defs>
  <g id="g2303">
    <path id="path46" style="fill:#646464;fill-opacity:1" d="M 184.613 61.9294 C 184.613 47.3672 180.461 39.8912 172.157 39.4818 C 168.852 39.3259 165.626 39.8522 162.488 41.0706 C 159.983 41.9673 158.296 42.8543 157.409 43.751 L 157.409 78.5092 C 162.721 81.8427 167.439 83.3925 171.552 83.1488 C 180.256 82.5737 184.613 75.5071 184.613 61.9294 Z M 194.858 62.5337 C 194.858 69.9317 193.123 76.0724 189.633 80.9557 C 185.744 86.4823 180.354 89.3284 173.463 89.4844 C 168.268 89.6501 162.916 88.0223 157.409 84.6108 L 157.409 116.201 L 148.5 113.024 L 148.5 42.903 C 149.963 41.1096 151.844 39.5695 154.125 38.2634 C 159.427 35.1736 165.87 33.5848 173.453 33.5069 L 173.58 33.6336 C 180.51 33.5458 185.851 36.392 189.604 42.1623 C 193.103 47.4549 194.858 54.2389 194.858 62.5337 Z"/>
    <path id="path48" style="fill:#646464;fill-opacity:1" d="M 249.305 83.2657 C 249.305 93.1883 248.311 100.06 246.322 103.881 C 244.324 107.702 240.523 110.753 234.908 113.024 C 230.357 114.817 225.434 115.792 220.151 115.957 L 218.68 110.343 C 224.05 109.612 227.832 108.881 230.025 108.15 C 234.343 106.688 237.306 104.446 238.934 101.444 C 240.24 98.9975 240.883 94.3287 240.883 87.418 L 240.883 85.0982 C 234.791 87.8664 228.407 89.2407 221.73 89.2407 C 217.344 89.2407 213.475 87.8664 210.141 85.0982 C 206.398 82.0863 204.527 78.2655 204.527 73.6356 L 204.527 36.5577 L 213.436 33.5069 L 213.436 70.8285 C 213.436 74.815 214.722 77.8854 217.295 80.0395 C 219.869 82.1936 223.202 83.2268 227.286 83.1488 C 231.37 83.0611 235.747 81.482 240.396 78.3922 L 240.396 34.852 L 249.305 34.852 L 249.305 83.2657 Z"/>
    <path id="path50" style="fill:#646464;fill-opacity:1" d="M 284.082 88.997 C 283.02 89.0848 282.045 89.1237 281.149 89.1237 C 276.109 89.1237 272.181 87.9249 269.374 85.5173 C 266.577 83.1098 265.173 79.786 265.173 75.5461 L 265.173 40.4565 L 259.071 40.4565 L 259.071 34.852 L 265.173 34.852 L 265.173 19.9681 L 274.072 16.8003 L 274.072 34.852 L 284.082 34.852 L 284.082 40.4565 L 274.072 40.4565 L 274.072 75.3024 C 274.072 78.6456 274.969 81.0142 276.762 82.3983 C 278.302 83.5387 280.749 84.1917 284.082 84.3574 L 284.082 88.997 Z"/>
    <path id="path52" style="fill:#646464;fill-opacity:1" d="M 338.023 88.266 L 329.114 88.266 L 329.114 53.8783 C 329.114 50.3791 328.295 47.3672 326.668 44.8525 C 324.786 42.0063 322.174 40.5832 318.821 40.5832 C 314.737 40.5832 309.63 42.7373 303.499 47.0456 L 303.499 88.266 L 294.59 88.266 L 294.59 6.06879 L 303.499 3.26163 L 303.499 40.7002 C 309.191 36.5577 315.41 34.4816 322.164 34.4816 C 326.882 34.4816 330.703 36.0703 333.627 39.2381 C 336.561 42.4059 338.023 46.3535 338.023 51.0711 L 338.023 88.266 L 338.023 88.266 Z"/>
    <path id="path54" style="fill:#646464;fill-opacity:1" d="M 385.374 60.5258 C 385.374 54.931 384.312 50.3108 382.197 46.6557 C 379.682 42.2013 375.773 39.8522 370.49 39.6085 C 360.724 40.1739 355.85 47.1723 355.85 60.5843 C 355.85 66.7347 356.864 71.8714 358.911 75.9944 C 361.523 81.2481 365.441 83.8408 370.666 83.7531 C 380.471 83.6751 385.374 75.9359 385.374 60.5258 Z M 395.131 60.5843 C 395.131 68.5476 393.094 75.1757 389.029 80.4683 C 384.556 86.3946 378.376 89.3674 370.49 89.3674 C 362.673 89.3674 356.581 86.3946 352.185 80.4683 C 348.199 75.1757 346.21 68.5476 346.21 60.5843 C 346.21 53.0985 348.365 46.8019 352.673 41.6749 C 357.225 36.236 363.209 33.5069 370.607 33.5069 C 378.005 33.5069 384.029 36.236 388.669 41.6749 C 392.977 46.8019 395.131 53.0985 395.131 60.5843 Z"/>
    <path id="path56" style="fill:#646464;fill-opacity:1" d="M 446.206 88.266 L 437.297 88.266 L 437.297 51.9289 C 437.297 47.9423 436.098 44.833 433.7 42.5911 C 431.303 40.3591 428.105 39.2771 424.119 39.3649 C 419.889 39.4428 415.863 40.8269 412.042 43.5074 L 412.042 88.266 L 403.133 88.266 L 403.133 42.4059 C 408.26 38.6728 412.978 36.236 417.286 35.0956 C 421.351 34.0332 424.938 33.5069 428.028 33.5069 C 430.143 33.5069 432.131 33.7115 434.002 34.1209 C 437.502 34.9299 440.348 36.431 442.541 38.6338 C 444.987 41.0706 446.206 43.9947 446.206 47.4159 L 446.206 88.266 Z"/>
    <path id="path1948" style="fill:url(#linearGradient1478);fill-opacity:1" d="M 60.5102 6.39797 C 55.9265 6.41927 51.5492 6.81019 47.6977 7.49172 C 36.3514 9.49623 34.2914 13.6918 34.2914 21.4292 L 34.2914 31.648 L 61.1039 31.648 L 61.1039 35.0542 L 34.2914 35.0542 L 24.2289 35.0542 C 16.4364 35.0542 9.61315 39.7379 7.47891 48.648 C 5.01709 58.8609 4.90789 65.234 7.47891 75.898 C 9.38483 83.8358 13.9364 89.4917 21.7289 89.4917 L 30.9477 89.4917 L 30.9477 77.2417 C 30.9477 68.3918 38.6048 60.5855 47.6977 60.5855 L 74.4789 60.5855 C 81.9339 60.5855 87.8852 54.4473 87.8852 46.9605 L 87.8852 21.4292 C 87.8852 14.1629 81.7552 8.70445 74.4789 7.49172 C 69.8729 6.725 65.0938 6.37667 60.5102 6.39797 Z M 46.0102 14.6167 C 48.7797 14.6167 51.0414 16.9154 51.0414 19.7417 C 51.0414 22.5581 48.7797 24.8355 46.0102 24.8355 C 43.2307 24.8355 40.9789 22.5581 40.9789 19.7417 C 40.9789 16.9154 43.2307 14.6167 46.0102 14.6167 Z"/>
    <path id="path1950" style="fill:url(#linearGradient1475);fill-opacity:1" d="M 91.2289 35.0542 L 91.2289 46.9605 C 91.2289 56.1912 83.403 63.9605 74.4789 63.9605 L 47.6977 63.9605 C 40.3618 63.9605 34.2914 70.239 34.2914 77.5855 L 34.2914 103.117 C 34.2914 110.383 40.61 114.657 47.6977 116.742 C 56.185 119.237 64.3239 119.688 74.4789 116.742 C 81.2291 114.787 87.8852 110.854 87.8852 103.117 L 87.8852 92.898 L 61.1039 92.898 L 61.1039 89.4917 L 87.8852 89.4917 L 101.291 89.4917 C 109.084 89.4917 111.988 84.0563 114.698 75.898 C 117.497 67.4991 117.378 59.4222 114.698 48.648 C 112.772 40.8905 109.094 35.0542 101.291 35.0542 L 91.2289 35.0542 Z M 76.1664 99.7105 C 78.9459 99.7105 81.1977 101.988 81.1977 104.804 C 81.1977 107.631 78.9459 109.929 76.1664 109.929 C 73.3969 109.929 71.1352 107.631 71.1352 104.804 C 71.1352 101.988 73.3969 99.7105 76.1664 99.7105 Z"/>
    <path id="text3004" style="font-size:15.16445827px;font-style:normal;font-weight:normal;line-height:125%;fill:#646464;fill-opacity:1;stroke:none;stroke-width:1px;stroke-linecap:butt;stroke-linejoin:miter;stroke-opacity:1;font-family:Bitstream Vera Sans" d="M 463.554 26.9094 L 465.116 26.9094 L 465.116 17.1131 L 468.816 17.1131 L 468.816 15.9455 L 459.854 15.9455 L 459.854 17.1131 L 463.554 17.1131 L 463.554 26.9094 M 470.201 26.9094 L 471.536 26.9094 L 471.536 17.9624 L 474.432 26.9083 L 475.918 26.9083 L 478.936 17.9927 L 478.936 26.9094 L 480.392 26.9094 L 480.392 15.9455 L 478.466 15.9455 L 475.168 25.3383 L 472.355 15.9455 L 470.201 15.9455 L 470.201 26.9094"/>
    <path id="path1894" style="opacity:0.44382019;fill:url(#radialGradient1480);fill-opacity:1;fill-rule:nonzero;stroke:none;stroke-width:20;stroke-miterlimit:4;stroke-dasharray:none;stroke-opacity:1" transform="matrix(0.73406, 0, 0, 0.809524, 16.2496, 27.0093)" d="M 110.467 132.286 A 48.9483 8.60668 0 1 1 12.5706 132.286 A 48.9483 8.60668 0 1 1 110.467 132.286 Z"/>
  </g>
</svg>